<svg width="17" height="17" viewBox="0 0 17 17" fill="none" xmlns="http://www.w3.org/2000/svg">
<path d="M4.93917 9.70756C5.41692 9.70756 5.8787 9.6767 6.31568 9.61926V4.82959C5.87874 4.77219 5.41692 4.74133 4.93917 4.74133C2.21135 4.74133 0 5.74427 0 6.98151V7.46734C0 8.70453 2.21135 9.70756 4.93917 9.70756Z" fill="black"/>
<path d="M4.93917 12.2085C5.41692 12.2085 5.8787 12.1776 6.31568 12.1203V10.7164C5.87861 10.7738 5.41704 10.805 4.93917 10.805C2.55808 10.805 0.570701 10.0408 0.103879 9.02368C0.0358963 9.17184 0 9.32524 0 9.4825V9.96833C0 11.2056 2.21135 12.2085 4.93917 12.2085Z" fill="black"/>
<path d="M6.31568 13.3266V13.2175C5.87862 13.2749 5.41704 13.3061 4.93917 13.3061C2.55808 13.3061 0.570701 12.5419 0.103879 11.5248C0.0358963 11.6729 0 11.8263 0 11.9836V12.4694C0 13.7067 2.21135 14.7096 4.93917 14.7096C5.48469 14.7096 6.00938 14.6694 6.50003 14.5953C6.37841 14.3465 6.31568 14.0842 6.31568 13.8124V13.3266Z" fill="black"/>
<path d="M12.0608 0.947266C9.33299 0.947266 7.12164 1.9502 7.12164 3.18744V3.67327C7.12164 4.9105 9.33299 5.91344 12.0608 5.91344C14.7886 5.91344 17 4.9105 17 3.67327V3.18744C17 1.9502 14.7886 0.947266 12.0608 0.947266Z" fill="black"/>
<path d="M12.0608 7.01097C9.67972 7.01097 7.69234 6.24678 7.22552 5.22961C7.15754 5.37773 7.12164 5.53113 7.12164 5.68844V6.17426C7.12164 7.4115 9.33299 8.41444 12.0608 8.41444C14.7886 8.41444 17 7.4115 17 6.17426V5.68844C17 5.53113 16.9641 5.37773 16.8961 5.22961C16.4293 6.24678 14.4419 7.01097 12.0608 7.01097Z" fill="black"/>
<path d="M12.0608 9.51207C9.67972 9.51207 7.69234 8.74783 7.22552 7.73071C7.15754 7.87883 7.12164 8.03223 7.12164 8.18953V8.67536C7.12164 9.91264 9.33299 10.9156 12.0608 10.9156C14.7886 10.9156 17 9.91264 17 8.67536V8.18953C17 8.03223 16.9641 7.87883 16.8961 7.73071C16.4293 8.74787 14.4419 9.51207 12.0608 9.51207Z" fill="black"/>
<path d="M12.0608 12.1482C9.67972 12.1482 7.69234 11.3839 7.22552 10.3668C7.15754 10.515 7.12164 10.6683 7.12164 10.8256V11.3115C7.12164 12.5487 9.33299 13.5516 12.0608 13.5516C14.7886 13.5516 17 12.5487 17 11.3115V10.8256C17 10.6683 16.9641 10.5149 16.8961 10.3668C16.4293 11.3839 14.4419 12.1482 12.0608 12.1482Z" fill="black"/>
<path d="M12.0608 14.649C9.67972 14.649 7.69234 13.8848 7.22552 12.8677C7.15754 13.0159 7.12164 13.1693 7.12164 13.3265V13.8123C7.12164 15.0496 9.33299 16.0525 12.0608 16.0525C14.7886 16.0525 17 15.0496 17 13.8123V13.3265C17 13.1692 16.9641 13.0157 16.8961 12.8677C16.4293 13.8848 14.4419 14.649 12.0608 14.649Z" fill="black"/>
</svg>
