<svg width="37" height="36" viewBox="0 0 37 36" fill="none" xmlns="http://www.w3.org/2000/svg">
<circle cx="18.9" cy="18" r="18" fill="#F79A38"/>
<path d="M24.5139 20.5136C24.9861 20.0414 25.0536 19.3667 24.6488 18.6921C24.3115 18.1523 23.7043 17.8825 23.0296 18.0174C22.7598 18.0849 22.4899 18.2198 22.22 18.4222C20.1286 19.839 17.2951 19.7715 15.2037 18.3547C15.0688 18.2873 14.9338 18.2198 14.7989 18.1523C14.0568 17.815 13.3147 17.95 12.9099 18.6246C12.4376 19.2993 12.5051 20.0414 13.1123 20.6486C13.2472 20.7835 13.3821 20.851 13.4496 20.9859L13.5171 21.0533C14.4616 21.7955 15.6085 22.2677 17.0927 22.4701L16.2157 23.3472C15.4736 24.0893 14.664 24.8988 13.9219 25.641C13.7195 25.8434 13.4496 26.1807 13.4496 26.6529C13.4496 27.2601 13.7869 27.8673 14.3941 28.1372C14.5965 28.2721 14.7989 28.2721 15.0013 28.2721C15.3386 28.2721 15.7434 28.1372 16.0133 27.7998C17.0252 26.7879 17.8348 25.9783 18.6444 25.1687C18.7119 25.1012 18.7119 25.1012 18.7119 25.1012C18.7119 25.1012 18.7793 25.1012 18.7793 25.1687C19.3191 25.7759 19.9262 26.3156 20.466 26.9228C20.7358 27.1926 21.0057 27.4625 21.2755 27.7324C21.6129 28.0697 21.8827 28.2046 22.2875 28.2046C22.8947 28.2721 23.5693 27.8673 23.8392 27.2601C24.1091 26.7204 23.9741 26.0457 23.5019 25.641C22.8272 24.9663 22.1526 24.2242 21.4105 23.5495L20.2636 22.4026C20.8708 22.3352 21.5454 22.2002 22.1526 21.9304C23.1646 21.5931 23.9067 21.1208 24.5139 20.5136Z" fill="white"/>
<path d="M18.7119 18.6246C21.6129 18.6246 23.9741 16.3308 23.9741 13.4298C23.9741 12.013 23.4344 10.6637 22.4224 9.65177C21.4105 8.63979 20.1286 8.10007 18.7793 8.10007C15.8783 8.10007 13.5845 10.4613 13.5171 13.2949C13.5171 14.7116 14.0568 15.9935 15.0688 17.0054C16.0133 18.0849 17.2951 18.6246 18.7119 18.6246ZM17.2276 11.8781C17.6324 11.4733 18.1722 11.2709 18.7119 11.2709C19.9262 11.2709 20.8033 12.2154 20.8033 13.3623C20.8033 14.5767 19.8588 15.4537 18.7119 15.4537C17.4975 15.4537 16.6205 14.5092 16.6205 13.3623C16.6205 12.8226 16.8229 12.2829 17.2276 11.8781Z" fill="white"/>
<path d="M24.5139 20.5136C24.9861 20.0414 25.0536 19.3667 24.6488 18.6921C24.3115 18.1523 23.7043 17.8825 23.0296 18.0174C22.7598 18.0849 22.4899 18.2198 22.22 18.4222C20.1286 19.839 17.2951 19.7715 15.2037 18.3547C15.0688 18.2873 14.9338 18.2198 14.7989 18.1523C14.0568 17.815 13.3147 17.95 12.9099 18.6246C12.4376 19.2993 12.5051 20.0414 13.1123 20.6486C13.2472 20.7835 13.3821 20.851 13.4496 20.9859L13.5171 21.0533C14.4616 21.7955 15.6085 22.2677 17.0927 22.4701L16.2157 23.3472C15.4736 24.0893 14.664 24.8988 13.9219 25.641C13.7195 25.8434 13.4496 26.1807 13.4496 26.6529C13.4496 27.2601 13.7869 27.8673 14.3941 28.1372C14.5965 28.2721 14.7989 28.2721 15.0013 28.2721C15.3386 28.2721 15.7434 28.1372 16.0133 27.7998C17.0252 26.7879 17.8348 25.9783 18.6444 25.1687C18.7119 25.1012 18.7119 25.1012 18.7119 25.1012C18.7119 25.1012 18.7793 25.1012 18.7793 25.1687C19.3191 25.7759 19.9262 26.3156 20.466 26.9228C20.7358 27.1926 21.0057 27.4625 21.2755 27.7324C21.6129 28.0697 21.8827 28.2046 22.2875 28.2046C22.8947 28.2721 23.5693 27.8673 23.8392 27.2601C24.1091 26.7204 23.9741 26.0457 23.5019 25.641C22.8272 24.9663 22.1526 24.2242 21.4105 23.5495L20.2636 22.4026C20.8708 22.3352 21.5454 22.2002 22.1526 21.9304C23.1646 21.5931 23.9067 21.1208 24.5139 20.5136Z" fill="white"/>
</svg>
