<svg width="37" height="36" viewBox="0 0 37 36" fill="none" xmlns="http://www.w3.org/2000/svg">
<circle cx="18.6" cy="18" r="18" fill="#00A9E7"/>
<path d="M27.8863 18.9614C27.9477 18.4705 28.0091 18.041 28.0091 17.5501C28.0091 12.641 24.0204 8.59098 19.05 8.59098C18.5591 8.59098 18.1295 8.65234 17.6386 8.71371C16.8409 8.28416 15.9818 8.10007 15.1227 8.10007C12.0545 8.10007 9.59998 10.5546 9.59998 13.6228C9.59998 14.4819 9.78407 15.341 10.2136 16.1387C10.1522 16.6296 10.0909 17.0592 10.0909 17.5501C10.0909 22.4592 14.0795 26.5092 19.05 26.5092C19.5409 26.5092 19.9704 26.4478 20.4613 26.3864C21.2591 26.7546 22.1182 27.0001 22.9772 27.0001C26.0454 27.0001 28.5 24.5455 28.5 21.4773C28.5 20.6183 28.2545 19.7592 27.8863 18.9614ZM22.7932 20.8023C22.6091 21.1705 22.3636 21.4773 21.9954 21.7228C21.6272 21.9683 21.2591 22.1523 20.7682 22.2751C20.2773 22.3978 19.725 22.4592 19.1113 22.4592C17.8227 22.4592 16.7795 22.1523 16.0432 21.6001C15.6136 21.2319 15.2454 20.8023 15.0613 20.2501C14.8159 19.7592 15.2454 19.1455 15.8591 19.1455H16.0432C16.4113 19.1455 16.7795 19.391 16.9022 19.6978C17.025 20.0046 17.2091 20.2501 17.4545 20.4342C17.8227 20.741 18.375 20.8637 19.05 20.8637C19.6636 20.8637 20.1545 20.741 20.5227 20.5569C20.8909 20.3728 21.075 20.0046 21.075 19.6364C21.075 19.4523 21.0136 19.3296 20.9522 19.2069C20.8909 19.0842 20.7068 18.9614 20.5841 18.9001C20.4 18.7773 20.2159 18.716 19.9091 18.6546C19.6636 18.5933 19.3568 18.4705 18.9886 18.4092L18.6204 18.2864C18.1909 18.1637 17.7 18.041 17.3318 17.9183C16.9022 17.7955 16.5341 17.6114 16.2272 17.4273C15.9204 17.2433 15.675 16.9978 15.4909 16.6296C15.3068 16.3228 15.2454 15.8933 15.2454 15.4023C15.2454 14.9114 15.3682 14.4819 15.5522 14.1137C15.7363 13.7455 16.0432 13.4387 16.35 13.2546C16.7182 13.0092 17.0863 12.8251 17.5772 12.7637C18.0068 12.641 18.4977 12.5796 19.05 12.5796C19.6636 12.5796 20.1545 12.641 20.6454 12.7637C21.1363 12.8864 21.5045 13.0705 21.8727 13.3773C22.2409 13.6228 22.4863 13.9296 22.6704 14.3592C22.9772 14.9114 22.5477 15.6478 21.8727 15.6478H21.6886C21.3204 15.6478 21.0136 15.4637 20.8295 15.1569C20.7068 14.9728 20.5841 14.7887 20.4 14.6046C20.0932 14.3592 19.6022 14.2364 19.05 14.2364C18.4977 14.2364 18.0682 14.3592 17.7613 14.5433C17.4545 14.7273 17.3318 15.0342 17.3318 15.341C17.3318 15.5251 17.3932 15.6478 17.4545 15.7705C17.5159 15.8933 17.6386 16.016 17.8227 16.0773C18.0068 16.1387 18.1909 16.2614 18.4363 16.3228C18.6818 16.3842 18.9886 16.4455 19.3568 16.5683C19.725 16.6296 20.0318 16.7523 20.4 16.8137C20.7068 16.8751 21.0136 16.9978 21.3204 17.0592C21.6272 17.1819 21.8727 17.3046 22.1182 17.4273C22.3636 17.5501 22.5477 17.7342 22.7318 17.9183C22.9159 18.1023 23.0386 18.3478 23.1 18.5933C23.2227 18.8387 23.2227 19.2069 23.2227 19.5751C23.1 20.0046 22.9773 20.4342 22.7932 20.8023Z" fill="white"/>
</svg>
