<svg width="36" height="36" viewBox="0 0 36 36" fill="none" xmlns="http://www.w3.org/2000/svg">
<circle cx="18" cy="18" r="18" fill="#2F89CE"/>
<path d="M8.41561 18.3365L12.5539 19.8796L14.1671 25.07C14.2373 25.4207 14.6581 25.4908 14.9387 25.2804L17.2533 23.3866C17.4637 23.1762 17.8144 23.1762 18.095 23.3866L22.2332 26.4027C22.5138 26.6131 22.9346 26.4728 23.0048 26.1221L26.0909 11.3926C26.1611 11.0419 25.8104 10.6912 25.4597 10.8315L8.41561 17.4247C7.99477 17.565 7.99477 18.1962 8.41561 18.3365ZM13.9567 19.1081L22.0929 14.1281C22.2332 14.058 22.3735 14.2684 22.2332 14.3385L15.5699 20.581C15.3595 20.7914 15.1491 21.072 15.1491 21.4227L14.9387 23.1061C14.9387 23.3165 14.588 23.3866 14.5178 23.1061L13.6761 20.0199C13.4657 19.6692 13.606 19.2484 13.9567 19.1081Z" fill="white"/>
</svg>
