<svg width="37" height="36" viewBox="0 0 37 36" fill="none" xmlns="http://www.w3.org/2000/svg">
<circle cx="18.3" cy="18" r="18" fill="#55ACE3"/>
<path d="M27.8401 13.4101C27.2101 13.6801 26.4901 13.8601 25.7701 13.9501C26.4901 13.5001 27.1201 12.7801 27.3901 11.9701C26.6701 12.4201 25.9501 12.6901 25.0501 12.8701C24.4201 12.1501 23.4301 11.7001 22.4401 11.7001C20.4601 11.7001 18.8401 13.3201 18.8401 15.3001C18.8401 15.5701 18.8401 15.8401 18.9301 16.1101C15.9601 15.9301 13.2601 14.4901 11.4601 12.3301C11.1901 12.8701 11.0101 13.5001 11.0101 14.1301C11.0101 15.3901 11.6401 16.4701 12.6301 17.1001C12.0001 17.1001 11.4601 16.9201 11.0101 16.6501C11.0101 18.3601 12.2701 19.8901 13.8901 20.1601C13.6201 20.2501 13.2601 20.2501 12.9001 20.2501C12.6301 20.2501 12.4501 20.2501 12.1801 20.1601C12.6301 21.6001 13.9801 22.6801 15.6001 22.6801C14.3401 23.6701 12.8101 24.2101 11.1001 24.2101C10.8301 24.2101 10.5601 24.2101 10.2001 24.1201C11.8201 25.1101 13.7101 25.7401 15.7801 25.7401C22.4401 25.7401 26.0401 20.2501 26.0401 15.4801V15.0301C26.7601 14.7601 27.3901 14.1301 27.8401 13.4101Z" fill="white"/>
</svg>
