<svg width="37" height="36" viewBox="0 0 37 36" fill="none" xmlns="http://www.w3.org/2000/svg">
<circle cx="18.1" cy="18" r="18" fill="#7C509A"/>
<path d="M23.7285 9.49132C20.2981 8.83623 16.7358 8.83623 13.3055 9.49132C11.7882 9.81887 9.87511 11.6531 9.54526 13.0944C8.95155 15.9113 8.95155 18.7937 9.54526 21.6106C9.94108 23.0518 11.8542 24.8861 13.3055 25.2136C13.3714 25.2136 13.4374 25.2791 13.4374 25.3447V29.4718C13.4374 29.6683 13.7013 29.7993 13.8332 29.6028L15.8123 27.572C15.8123 27.572 17.3955 25.9342 17.6594 25.6722C17.6594 25.6722 17.7254 25.6067 17.7913 25.6067C19.7704 25.6722 21.8154 25.4757 23.7945 25.1481C25.3118 24.8206 27.2248 22.9863 27.5547 21.5451C28.1484 18.7282 28.1484 15.8458 27.5547 13.0288C27.1589 11.6531 25.2458 9.81887 23.7285 9.49132ZM23.7945 21.8071C23.4646 22.4622 23.0688 22.9863 22.4091 23.3139C22.2112 23.3794 22.0133 23.4449 21.8154 23.5104C21.5515 23.4449 21.3536 23.3794 21.1557 23.3139C19.0447 22.4622 17.0657 21.2831 15.4824 19.5798C14.6248 18.5972 13.8992 17.4835 13.3055 16.3043C13.0416 15.7147 12.7777 15.1907 12.5798 14.6011C12.3819 14.077 12.7118 13.5529 13.0416 13.1599C13.3714 12.7668 13.7673 12.5048 14.229 12.3082C14.5589 12.1117 14.8887 12.2427 15.1526 12.5048C15.6803 13.1599 16.2081 13.815 16.6039 14.5356C16.8678 14.9941 16.8018 15.5182 16.34 15.8458C16.2081 15.9113 16.1421 15.9768 16.0102 16.1078C15.9442 16.1733 15.8123 16.2388 15.7463 16.3698C15.6144 16.5664 15.6144 16.7629 15.6803 16.9594C16.2081 18.4661 17.1976 19.6453 18.7149 20.3004C18.9788 20.4314 19.1767 20.4969 19.5065 20.4969C19.9683 20.4314 20.1662 19.9074 20.496 19.6453C20.8259 19.3833 21.2217 19.3833 21.6175 19.5798C21.9474 19.7763 22.2772 20.0384 22.673 20.3004C23.0029 20.5624 23.3327 20.759 23.6625 21.021C23.8604 21.152 23.9264 21.4796 23.7945 21.8071ZM21.0238 16.8939C20.8919 16.8939 20.9578 16.8939 21.0238 16.8939C20.7599 16.8939 20.694 16.7629 20.628 16.5664C20.628 16.4353 20.628 16.2388 20.562 16.1078C20.496 15.8458 20.3641 15.5837 20.1002 15.3872C19.9683 15.3217 19.8364 15.2562 19.7044 15.1907C19.5065 15.1252 19.3746 15.1252 19.1767 15.1252C18.9788 15.0596 18.9128 14.9286 18.9128 14.7321C18.9128 14.6011 19.1107 14.4701 19.2426 14.4701C20.2981 14.5356 21.0898 15.1251 21.2217 16.3698C21.2217 16.4353 21.2217 16.5664 21.2217 16.6319C21.2217 16.7629 21.1557 16.8939 21.0238 16.8939ZM20.3641 14.0115C20.0343 13.8805 19.7044 13.7494 19.3086 13.6839C19.1767 13.6839 18.9788 13.6184 18.8468 13.6184C18.6489 13.6184 18.517 13.4874 18.583 13.2909C18.583 13.0944 18.7149 12.9633 18.9128 13.0288C19.5725 13.0944 20.1662 13.2254 20.7599 13.4874C21.9474 14.077 22.607 15.0596 22.805 16.3698C22.805 16.4353 22.805 16.5009 22.805 16.5664C22.805 16.6974 22.805 16.8284 22.805 17.0249C22.805 17.0904 22.805 17.156 22.805 17.2215C22.739 17.4835 22.2772 17.549 22.2112 17.2215C22.2112 17.156 22.1453 17.0249 22.1453 16.9594C22.1453 16.3698 22.0133 15.7802 21.7495 15.2562C21.3536 14.6666 20.8919 14.2735 20.3641 14.0115ZM23.9264 17.9421C23.7285 17.9421 23.5966 17.7455 23.5966 17.549C23.5966 17.156 23.5306 16.7629 23.4646 16.3698C23.2008 14.2735 21.4856 12.5703 19.4406 12.2427C19.1107 12.1772 18.7809 12.1772 18.517 12.1117C18.3191 12.1117 18.0552 12.1117 17.9892 11.8497C17.9233 11.6531 18.1212 11.4566 18.3191 11.4566C18.3851 11.4566 18.451 11.4566 18.451 11.4566C21.1557 11.5221 18.583 11.4566 18.451 11.4566C21.2217 11.5221 23.5306 13.3564 23.9924 16.1078C24.0584 16.5664 24.1243 17.0249 24.1243 17.549C24.2563 17.7455 24.1243 17.9421 23.9264 17.9421Z" fill="white"/>
</svg>
