<svg width="37" height="36" viewBox="0 0 37 36" fill="none" xmlns="http://www.w3.org/2000/svg">
<circle cx="18.5" cy="18" r="18" fill="#7294C7"/>
<path d="M27.3255 22.6038C27.3255 22.5291 27.2508 22.5291 27.2508 22.4544C26.9519 21.8566 26.2794 21.1094 25.3828 20.2875C24.9345 19.9139 24.7103 19.615 24.5609 19.4655C24.3367 19.1667 24.3367 18.9425 24.4114 18.6436C24.4862 18.4195 24.785 18.0458 25.3081 17.3734C25.607 16.9998 25.7564 16.7756 25.9806 16.5514C27.1014 15.057 27.6244 14.0856 27.475 13.6373L27.4003 13.5626C27.3255 13.4879 27.2508 13.4132 27.1014 13.4132C26.9519 13.3384 26.7278 13.3384 26.5036 13.4132H23.6642C23.5895 13.4132 23.5895 13.4132 23.4401 13.4132C23.3653 13.4132 23.2906 13.4132 23.2906 13.4132H23.2159H23.1412L23.0665 13.4879C22.9917 13.5626 22.9917 13.5626 22.9917 13.6373C22.6928 14.4592 22.3192 15.1317 21.9456 15.8789C21.7215 16.2525 21.4973 16.6262 21.2732 16.925C21.049 17.2239 20.8995 17.4481 20.7501 17.5975C20.6007 17.747 20.4512 17.8217 20.3765 17.9711C20.3018 18.0458 20.1524 18.1206 20.1524 18.0458C20.0776 18.0458 20.0029 18.0458 20.0029 17.9711C19.9282 17.8964 19.8535 17.8217 19.7787 17.747C19.704 17.6722 19.704 17.5228 19.6293 17.3734C19.6293 17.2239 19.6293 17.0745 19.6293 16.9998C19.6293 16.925 19.6293 16.7009 19.6293 16.5514C19.6293 16.3273 19.6293 16.1778 19.6293 16.1031C19.6293 15.8789 19.6293 15.5801 19.6293 15.2812C19.6293 14.9823 19.6293 14.7581 19.6293 14.6087C19.6293 14.4593 19.6293 14.2351 19.6293 14.0857C19.6293 13.8615 19.6293 13.712 19.6293 13.6373C19.6293 13.5626 19.5546 13.4132 19.5546 13.3384C19.4799 13.2637 19.4051 13.189 19.3304 13.1143C19.2557 13.0396 19.1063 13.0396 19.0315 12.9648C18.6579 12.8901 18.2096 12.8154 17.6866 12.8154C16.491 12.8154 15.6691 12.8901 15.3702 13.0396C15.2208 13.1143 15.0714 13.189 14.9966 13.3384C14.8472 13.4879 14.8472 13.5626 14.9219 13.5626C15.2955 13.6373 15.5944 13.7868 15.7438 14.0109L15.8186 14.1604C15.8933 14.2351 15.8933 14.3845 15.968 14.6087C16.0427 14.8329 16.0427 15.057 16.0427 15.3559C16.0427 15.8042 16.0427 16.2526 16.0427 16.5514C16.0427 16.925 15.968 17.1492 15.968 17.3734C15.968 17.5975 15.8933 17.747 15.8186 17.8217C15.7438 17.9711 15.7438 18.0458 15.6691 18.0458C15.6691 18.0458 15.6691 18.1206 15.5944 18.1206C15.5197 18.1206 15.445 18.1953 15.2955 18.1953C15.2208 18.1953 15.0714 18.1206 14.9966 18.0458C14.8472 17.9711 14.6978 17.8217 14.623 17.6722C14.4736 17.5228 14.3241 17.2986 14.1747 16.9998C14.0253 16.7009 13.8011 16.402 13.6516 15.9537L13.5022 15.6548C13.4275 15.5053 13.2781 15.2065 13.1286 14.8329C12.9792 14.4593 12.8297 14.1604 12.6803 13.7868C12.6056 13.6373 12.5309 13.5626 12.4561 13.4879H12.3814C12.3814 13.4879 12.3067 13.4132 12.232 13.4132C12.1572 13.4132 12.0825 13.3384 12.0078 13.3384H9.31786C9.01898 13.3384 8.86954 13.4132 8.79482 13.4879L8.72009 13.5626C8.72009 13.5626 8.72009 13.6373 8.72009 13.712C8.72009 13.7868 8.7201 13.8615 8.79482 14.0109C9.16842 14.9076 9.61674 15.8042 10.0651 16.7009C10.5134 17.5228 10.9617 18.27 11.2606 18.7931C11.6342 19.3161 11.9331 19.8391 12.3067 20.2875C12.6803 20.7358 12.9044 21.0347 12.9792 21.1841C13.1286 21.3336 13.2033 21.4083 13.278 21.483L13.5022 21.7072C13.6517 21.8566 13.8758 22.0808 14.1747 22.3049C14.4736 22.5291 14.8472 22.7532 15.2208 22.9774C15.5944 23.2016 16.0427 23.351 16.491 23.5005C17.0141 23.6499 17.4624 23.7246 17.9107 23.6499H19.0315C19.2557 23.6499 19.4052 23.5752 19.5546 23.4257L19.6293 23.351C19.6293 23.2763 19.704 23.2763 19.704 23.2016C19.704 23.1268 19.704 23.0521 19.704 22.9027C19.704 22.6038 19.704 22.3796 19.7787 22.1555C19.8535 21.9313 19.8535 21.7819 19.9282 21.6324C20.0029 21.483 20.0776 21.4083 20.1524 21.3335C20.2271 21.2588 20.3018 21.1841 20.3018 21.1841H20.3765C20.5259 21.1094 20.7501 21.1841 20.8996 21.3335C21.1237 21.483 21.3479 21.7072 21.4973 21.9313C21.6468 22.1555 21.8709 22.3796 22.1698 22.6785C22.4687 22.9774 22.6929 23.2016 22.8423 23.2763L23.0665 23.4257C23.2159 23.5005 23.3653 23.5752 23.5895 23.6499C23.8137 23.7246 23.9631 23.7246 24.1125 23.7246L26.6531 23.6499C26.8772 23.6499 27.1014 23.5752 27.2508 23.5005C27.4003 23.4257 27.475 23.351 27.475 23.2016C27.475 23.1268 27.475 22.9774 27.475 22.9027C27.3255 22.7532 27.3255 22.6785 27.3255 22.6038Z" fill="white"/>
</svg>
